PathFileType	4	(X/Y/Z)	C:\Users\italobelli\Desktop\GitHub\PTbot_officialCBL\Personal_Results\ABD03_noisy2.trc
DataRate	CameraRate	NumFrames	NumMarkers	Units	OrigDataRate	OrigDataStartFrame	OrigNumFrames
106.533333	106.533333	42	9	m	106.533333	101	800
Frame#	Time		gu		centelbow		EpL		centpxt8		centijc7		ij		ts		aa		ai
			X1	Y1	Z1	X2	Y2	Z2	X3	Y3	Z3	X4	Y4	Z4	X5	Y5	Z5	X6	Y6	Z6	X7	Y7	Z7	X8	Y8	Z8	X9	Y9	Z9

101	0.93867	-0.10271	0.022983	0.14707	-0.14599	-0.1212	0.33479	-0.16375	-0.096679	0.3441	-0.046816	-0.15316	-0.008669	-0.046816	0.031938	-0.008669	0	0	0	-0.12183	0.013956	0.023647	-0.13649	0.04818	0.13697	-0.1266	-0.093036	0.061019
102	0.94806	-0.10267	0.023493	0.14685	-0.14627	-0.11854	0.33665	-0.16412	-0.093834	0.34566	-0.046816	-0.15316	-0.008669	-0.046816	0.031938	-0.008669	0	0	0	-0.12173	0.013655	0.023561	-0.13651	0.048482	0.1367	-0.12636	-0.093167	0.061502
103	0.95745	-0.10263	0.023994	0.14663	-0.14653	-0.11591	0.3384	-0.16446	-0.091028	0.34712	-0.046816	-0.15316	-0.008669	-0.046816	0.031938	-0.008669	0	0	0	-0.12163	0.013358	0.023484	-0.13652	0.048778	0.13643	-0.12614	-0.093291	0.061984
104	0.96683	-0.10259	0.024486	0.14641	-0.14679	-0.1133	0.34002	-0.1648	-0.088265	0.34846	-0.046816	-0.15316	-0.008669	-0.046816	0.031938	-0.008669	0	0	0	-0.12155	0.013067	0.023417	-0.13654	0.04907	0.13616	-0.12593	-0.093407	0.062464
105	0.97622	-0.10254	0.024968	0.14619	-0.14703	-0.11073	0.3415	-0.16511	-0.085547	0.34969	-0.046816	-0.15316	-0.008669	-0.046816	0.031938	-0.008669	0	0	0	-0.12147	0.012779	0.02336	-0.13656	0.049356	0.13591	-0.12573	-0.093515	0.062942
106	0.98561	-0.1025	0.02544	0.14597	-0.14726	-0.10819	0.34285	-0.16541	-0.082878	0.3508	-0.046816	-0.15316	-0.008669	-0.046816	0.031938	-0.008669	0	0	0	-0.1214	0.012498	0.023315	-0.13657	0.049635	0.13566	-0.12555	-0.093613	0.063419
107	0.99499	-0.10246	0.025901	0.14576	-0.14749	-0.10569	0.34406	-0.16569	-0.08026	0.35178	-0.046816	-0.15316	-0.008669	-0.046816	0.031938	-0.008669	0	0	0	-0.12133	0.012221	0.02328	-0.13659	0.049909	0.13542	-0.12538	-0.093703	0.063893
108	1.0044	-0.10242	0.026353	0.14554	-0.1477	-0.10322	0.34513	-0.16595	-0.077689	0.35264	-0.046816	-0.15316	-0.008669	-0.046816	0.031938	-0.008669	0	0	0	-0.12127	0.01195	0.023256	-0.13661	0.050176	0.13518	-0.12522	-0.093784	0.064366
109	1.0138	-0.10238	0.026804	0.14532	-0.14788	-0.10075	0.34618	-0.16618	-0.075128	0.35348	-0.046816	-0.15316	-0.008669	-0.046816	0.031938	-0.008669	0	0	0	-0.12122	0.011678	0.023237	-0.13662	0.050442	0.13495	-0.12506	-0.09386	0.064844
110	1.0232	-0.10233	0.027256	0.1451	-0.14805	-0.098281	0.34722	-0.16639	-0.072568	0.3543	-0.046816	-0.15316	-0.008669	-0.046816	0.031938	-0.008669	0	0	0	-0.12117	0.011404	0.023224	-0.13664	0.050708	0.13473	-0.12491	-0.093933	0.065329
111	1.0325	-0.10228	0.02771	0.14488	-0.1482	-0.095806	0.34825	-0.16658	-0.070009	0.35511	-0.046816	-0.15316	-0.008669	-0.046816	0.031938	-0.008669	0	0	0	-0.12112	0.01113	0.023214	-0.13665	0.050973	0.1345	-0.12476	-0.094002	0.06582
112	1.0419	-0.10222	0.028164	0.14466	-0.14832	-0.093328	0.34928	-0.16674	-0.067453	0.3559	-0.046816	-0.15316	-0.008669	-0.046816	0.031938	-0.008669	0	0	0	-0.12107	0.010854	0.023209	-0.13666	0.051237	0.13428	-0.12461	-0.094068	0.066317
113	1.0513	-0.10216	0.028619	0.14444	-0.14843	-0.090847	0.35029	-0.16687	-0.064899	0.35668	-0.046816	-0.15316	-0.008669	-0.046816	0.031938	-0.008669	0	0	0	-0.12102	0.010577	0.023208	-0.13667	0.051501	0.13406	-0.12446	-0.09413	0.06682
114	1.0607	-0.1021	0.029075	0.14421	-0.14852	-0.088364	0.3513	-0.16699	-0.062347	0.35744	-0.046816	-0.15316	-0.008669	-0.046816	0.031938	-0.008669	0	0	0	-0.12098	0.0103	0.023211	-0.13668	0.051764	0.13385	-0.12432	-0.094188	0.067329
115	1.0701	-0.10203	0.029531	0.14399	-0.14859	-0.085878	0.3523	-0.16708	-0.059797	0.35819	-0.046816	-0.15316	-0.008669	-0.046816	0.031938	-0.008669	0	0	0	-0.12094	0.010021	0.023218	-0.13669	0.052026	0.13364	-0.12418	-0.094243	0.067842
116	1.0795	-0.10197	0.029988	0.14377	-0.14865	-0.083389	0.35329	-0.16716	-0.05725	0.35892	-0.046816	-0.15316	-0.008669	-0.046816	0.031938	-0.008669	0	0	0	-0.1209	0.009742	0.023229	-0.13669	0.052288	0.13343	-0.12404	-0.094295	0.068361
117	1.0889	-0.1019	0.030444	0.14354	-0.14869	-0.080899	0.35427	-0.16721	-0.054706	0.35964	-0.046816	-0.15316	-0.008669	-0.046816	0.031938	-0.008669	0	0	0	-0.12086	0.0094623	0.023244	-0.1367	0.052549	0.13322	-0.1239	-0.094343	0.068885
118	1.0982	-0.10182	0.030901	0.14331	-0.14872	-0.078408	0.35524	-0.16725	-0.052164	0.36033	-0.046816	-0.15316	-0.008669	-0.046816	0.031938	-0.008669	0	0	0	-0.12083	0.0091822	0.023263	-0.1367	0.05281	0.13302	-0.12376	-0.094388	0.069412
119	1.1076	-0.10175	0.031358	0.14309	-0.14873	-0.075915	0.35619	-0.16727	-0.049626	0.36102	-0.046816	-0.15316	-0.008669	-0.046816	0.031938	-0.008669	0	0	0	-0.1208	0.0089017	0.023285	-0.1367	0.05307	0.13281	-0.12363	-0.09443	0.069945
120	1.117	-0.10167	0.031814	0.14286	-0.14873	-0.073421	0.35713	-0.16728	-0.047091	0.36168	-0.046816	-0.15316	-0.008669	-0.046816	0.031938	-0.008669	0	0	0	-0.12077	0.0086211	0.02331	-0.13671	0.053329	0.13261	-0.1235	-0.094468	0.070481
121	1.1264	-0.1016	0.03227	0.14263	-0.14871	-0.070926	0.35806	-0.16727	-0.044559	0.36232	-0.046816	-0.15316	-0.008669	-0.046816	0.031938	-0.008669	0	0	0	-0.12074	0.0083403	0.023339	-0.13671	0.053588	0.13242	-0.12338	-0.094503	0.07102
122	1.1358	-0.10152	0.032725	0.1424	-0.14869	-0.06843	0.35897	-0.16725	-0.042031	0.36295	-0.046816	-0.15316	-0.008669	-0.046816	0.031938	-0.008669	0	0	0	-0.12071	0.0080595	0.023371	-0.13671	0.053846	0.13222	-0.12325	-0.094535	0.071564
123	1.1452	-0.10143	0.033179	0.14217	-0.14865	-0.065934	0.35987	-0.16721	-0.039507	0.36356	-0.046816	-0.15316	-0.008669	-0.046816	0.031938	-0.008669	0	0	0	-0.12069	0.0077789	0.023406	-0.13671	0.054103	0.13202	-0.12313	-0.094564	0.07211
124	1.1546	-0.10135	0.033632	0.14194	-0.14861	-0.063438	0.36076	-0.16716	-0.036986	0.36415	-0.046816	-0.15316	-0.008669	-0.046816	0.031938	-0.008669	0	0	0	-0.12067	0.0074986	0.023444	-0.13671	0.05436	0.13183	-0.12302	-0.094589	0.072659
125	1.164	-0.10127	0.034085	0.14171	-0.14855	-0.060943	0.36162	-0.16711	-0.03447	0.36472	-0.046816	-0.15316	-0.008669	-0.046816	0.031938	-0.008669	0	0	0	-0.12065	0.0072185	0.023485	-0.13671	0.054616	0.13164	-0.1229	-0.094611	0.073211
126	1.1733	-0.10118	0.034536	0.14148	-0.14849	-0.058448	0.36247	-0.16704	-0.031958	0.36527	-0.046816	-0.15316	-0.008669	-0.046816	0.031938	-0.008669	0	0	0	-0.12064	0.006939	0.023528	-0.1367	0.054872	0.13145	-0.12279	-0.09463	0.073765
127	1.1827	-0.1011	0.034986	0.14125	-0.14842	-0.055953	0.3633	-0.16696	-0.02945	0.3658	-0.046816	-0.15316	-0.008669	-0.046816	0.031938	-0.008669	0	0	0	-0.12062	0.0066601	0.023575	-0.1367	0.055126	0.13126	-0.12269	-0.094646	0.074321
128	1.1921	-0.10101	0.035434	0.14102	-0.14835	-0.05346	0.36412	-0.16688	-0.026947	0.36631	-0.046816	-0.15316	-0.008669	-0.046816	0.031938	-0.008669	0	0	0	-0.12061	0.0063818	0.023623	-0.1367	0.05538	0.13107	-0.12258	-0.094659	0.074879
129	1.2015	-0.10092	0.03588	0.14079	-0.14827	-0.050968	0.36491	-0.16678	-0.024449	0.3668	-0.046816	-0.15316	-0.008669	-0.046816	0.031938	-0.008669	0	0	0	-0.1206	0.0061044	0.023675	-0.1367	0.055634	0.13088	-0.12249	-0.094669	0.075439
130	1.2109	-0.10084	0.036325	0.14056	-0.14818	-0.048477	0.36568	-0.16669	-0.021955	0.36726	-0.046816	-0.15316	-0.008669	-0.046816	0.031938	-0.008669	0	0	0	-0.12059	0.0058279	0.023728	-0.1367	0.055887	0.1307	-0.12239	-0.094675	0.075999
131	1.2203	-0.10075	0.036767	0.14032	-0.14809	-0.045989	0.36643	-0.16659	-0.019467	0.36771	-0.046816	-0.15316	-0.008669	-0.046816	0.031938	-0.008669	0	0	0	-0.12059	0.0055525	0.023784	-0.13669	0.056139	0.13051	-0.1223	-0.094679	0.076561
132	1.2297	-0.10066	0.037208	0.14009	-0.148	-0.043502	0.36717	-0.16648	-0.016984	0.36813	-0.046816	-0.15316	-0.008669	-0.046816	0.031938	-0.008669	0	0	0	-0.12059	0.0052783	0.023842	-0.13669	0.05639	0.13033	-0.12222	-0.09468	0.077124
133	1.239	-0.10058	0.037646	0.13986	-0.1479	-0.041018	0.36787	-0.16637	-0.014506	0.36853	-0.046816	-0.15316	-0.008669	-0.046816	0.031938	-0.008669	0	0	0	-0.12058	0.0050053	0.023901	-0.13669	0.056641	0.13014	-0.12213	-0.094678	0.077687
134	1.2484	-0.10049	0.038081	0.13963	-0.14781	-0.038536	0.36856	-0.16626	-0.012034	0.3689	-0.046816	-0.15316	-0.008669	-0.046816	0.031938	-0.008669	0	0	0	-0.12059	0.0047337	0.023963	-0.13669	0.056891	0.12996	-0.12206	-0.094672	0.07825
135	1.2578	-0.10041	0.038514	0.13939	-0.14771	-0.036057	0.36922	-0.16615	-0.0095677	0.36926	-0.046816	-0.15316	-0.008669	-0.046816	0.031938	-0.008669	0	0	0	-0.12059	0.0044636	0.024027	-0.13668	0.05714	0.12978	-0.12198	-0.094664	0.078814
136	1.2672	-0.10032	0.038945	0.13916	-0.14761	-0.033582	0.36986	-0.16604	-0.0071072	0.36959	-0.046816	-0.15316	-0.008669	-0.046816	0.031938	-0.008669	0	0	0	-0.1206	0.0041952	0.024092	-0.13668	0.057388	0.12959	-0.12192	-0.094654	0.079377
137	1.2766	-0.10024	0.039372	0.13893	-0.14752	-0.031109	0.37048	-0.16593	-0.0046529	0.36989	-0.046816	-0.15316	-0.008669	-0.046816	0.031938	-0.008669	0	0	0	-0.1206	0.0039285	0.024158	-0.13668	0.057636	0.12941	-0.12185	-0.09464	0.079939
138	1.286	-0.10016	0.039796	0.13869	-0.14742	-0.028641	0.37106	-0.16582	-0.0022048	0.37017	-0.046816	-0.15316	-0.008669	-0.046816	0.031938	-0.008669	0	0	0	-0.12061	0.0036636	0.024226	-0.13668	0.057883	0.12923	-0.1218	-0.094624	0.080501
139	1.2954	-0.10008	0.040217	0.13846	-0.14733	-0.026176	0.37163	-0.16571	0.00023687	0.37043	-0.046816	-0.15316	-0.008669	-0.046816	0.031938	-0.008669	0	0	0	-0.12063	0.0034007	0.024296	-0.13668	0.05813	0.12904	-0.12174	-0.094604	0.081061
140	1.3048	-0.099998	0.040634	0.13822	-0.14724	-0.023715	0.37216	-0.16561	0.0026719	0.37066	-0.046816	-0.15316	-0.008669	-0.046816	0.031938	-0.008669	0	0	0	-0.12064	0.00314	0.024366	-0.13668	0.058375	0.12886	-0.1217	-0.094582	0.081621
141	1.3141	-0.099921	0.041048	0.13799	-0.14716	-0.021259	0.37267	-0.16552	0.0051002	0.37086	-0.046816	-0.15316	-0.008669	-0.046816	0.031938	-0.008669	0	0	0	-0.12066	0.0028814	0.024438	-0.13668	0.05862	0.12867	-0.12165	-0.094558	0.082178
142	1.3235	-0.099846	0.041458	0.13776	-0.14708	-0.018808	0.37315	-0.16543	0.0075216	0.37104	-0.046816	-0.15316	-0.008669	-0.046816	0.031938	-0.008669	0	0	0	-0.12068	0.0026251	0.02451	-0.13668	0.058864	0.12849	-0.12162	-0.09453	0.082734
